<svg xmlns="http://www.w3.org/2000/svg" viewBox="0 0 600 840" role="img" aria-label="Neutrales Platzhalterbild">
  <defs>
    <linearGradient id="bg" x1="0" x2="1" y1="0" y2="1">
      <stop offset="0%" stop-color="#131722"/>
      <stop offset="100%" stop-color="#1f2937"/>
    </linearGradient>
    <linearGradient id="accent" x1="0" x2="1" y1="0" y2="1">
      <stop offset="0%" stop-color="#8b5cf6"/>
      <stop offset="100%" stop-color="#2563eb"/>
    </linearGradient>
  </defs>
  <rect width="600" height="840" rx="24" fill="url(#bg)"/>
  <rect x="24" y="24" width="552" height="792" rx="18" fill="none" stroke="#94a3b8" stroke-opacity="0.45" stroke-width="2"/>
  <rect x="50" y="58" width="500" height="120" rx="18" fill="#0f172a" opacity="0.7"/>
  <rect x="74" y="96" width="180" height="14" rx="7" fill="#94a3b8" opacity="0.45"/>
  <rect x="74" y="120" width="260" height="12" rx="6" fill="#94a3b8" opacity="0.28"/>
  <rect x="70" y="220" width="460" height="400" rx="22" fill="url(#accent)" opacity="0.18"/>
  <circle cx="300" cy="390" r="88" fill="none" stroke="#cbd5e1" stroke-opacity="0.75" stroke-width="12"/>
  <path d="M300 314 L334 388 L300 462 L266 388 Z" fill="#e2e8f0" opacity="0.9"/>
  <rect x="74" y="650" width="150" height="12" rx="6" fill="#94a3b8" opacity="0.38"/>
  <rect x="74" y="676" width="220" height="12" rx="6" fill="#94a3b8" opacity="0.24"/>
  <rect x="74" y="710" width="110" height="28" rx="14" fill="#0f172a" stroke="#94a3b8" stroke-opacity="0.5"/>
  <text x="300" y="780" text-anchor="middle" font-size="24" font-family="Arial, Helvetica, sans-serif" fill="#e2e8f0" opacity="0.9">PLATZHALTER</text>
</svg>
